<?xml version="1.0" encoding="UTF-8" standalone="no"?>
<svg
   xmlns:dc="http://purl.org/dc/elements/1.1/"
   xmlns:cc="http://creativecommons.org/ns#"
   xmlns:rdf="http://www.w3.org/1999/02/22-rdf-syntax-ns#"
   xmlns:svg="http://www.w3.org/2000/svg"
   xmlns="http://www.w3.org/2000/svg"
   xmlns:sodipodi="http://sodipodi.sourceforge.net/DTD/sodipodi-0.dtd"
   xmlns:inkscape="http://www.inkscape.org/namespaces/inkscape"
   width="249.62401mm"
   height="165.03139mm"
   viewBox="0 0 249.62401 165.03139"
   version="1.1"
   id="svg1241"
   inkscape:version="1.0.2-2 (e86c870879, 2021-01-15)"
   sodipodi:docname="irpf logo.svg">
  <defs
     id="defs1235" />
  <sodipodi:namedview
     id="base"
     pagecolor="#ffffff"
     bordercolor="#666666"
     borderopacity="1.0"
     inkscape:pageopacity="0.0"
     inkscape:pageshadow="2"
     inkscape:zoom="0.24748737"
     inkscape:cx="257.38609"
     inkscape:cy="425.01915"
     inkscape:document-units="mm"
     inkscape:current-layer="layer1"
     inkscape:document-rotation="0"
     showgrid="false"
     inkscape:window-width="2560"
     inkscape:window-height="1027"
     inkscape:window-x="-8"
     inkscape:window-y="-8"
     inkscape:window-maximized="1" />
  <metadata
     id="metadata1238">
    <rdf:RDF>
      <cc:Work
         rdf:about="">
        <dc:format>image/svg+xml</dc:format>
        <dc:type
           rdf:resource="http://purl.org/dc/dcmitype/StillImage" />
        <dc:title></dc:title>
      </cc:Work>
    </rdf:RDF>
  </metadata>
  <g
     inkscape:label="Layer 1"
     inkscape:groupmode="layer"
     id="layer1"
     transform="translate(4.3330313,-87.874398)">
    <path
       style="fill:#000000;stroke-width:1"
       d="m 120.02569,252.56653 c -0.22235,-0.18658 -1.24546,-1.16446 -2.27357,-2.17305 -6.67087,-6.54422 -26.685395,-25.5484 -37.121928,-35.24801 -13.200969,-12.26883 -27.404344,-25.0858 -36.504081,-32.94087 -0.571282,-0.49315 -1.0387,-0.90926 -1.0387,-0.92469 0,-0.27376 6.91033,-13.75513 11.029822,-21.51808 4.430982,-8.34994 9.278361,-17.07777 12.043011,-21.68375 1.046298,-1.74316 1.426582,-2.45394 1.352532,-2.52799 -0.09794,-0.0979 -0.805247,0.29714 -7.06769,3.94779 -11.258612,6.56313 -24.646719,14.85882 -35.236854,21.83384 -2.879579,1.89659 -3.157109,2.06187 -3.462238,2.06187 -0.111304,0 -0.857642,-0.52879 -1.658529,-1.17509 -2.311184,-1.86507 -5.559493,-4.38161 -8.564321,-6.63499 -4.688622,-3.51609 -6.3168884,-4.68366 -14.5507079,-10.4338 l -1.3054674,-0.91168 0.4242165,-0.31197 c 0.4258313,-0.31317 1.0014573,-0.65521 7.3139086,-4.34603 19.1820942,-11.21554 37.4388282,-20.88429 54.4229892,-28.82235 5.754278,-2.68944 8.951384,-4.10656 9.608351,-4.25892 0.604564,-0.14021 1.645234,-0.14573 8.37434,-0.0444 13.894266,0.20919 26.006566,0.72549 37.989136,1.61932 1.6156,0.12051 3.63443,0.243 4.48629,0.27219 l 1.54884,0.0531 -0.53408,-0.31491 c -1.826,-1.07668 -20.951917,-8.24421 -28.012619,-10.497865 -0.425928,-0.13595 -0.77442,-0.280449 -0.77442,-0.321108 0,-0.112994 1.500708,-0.636965 8.81236,-3.076833 11.512079,-3.841533 19.781439,-6.313856 21.118429,-6.313856 0.45347,0 1.46296,0.227078 3.58899,0.807322 13.90589,3.795256 28.68296,8.964475 44.56306,15.58876 5.25833,2.19348 8.14145,3.4494 8.31352,3.62147 0.1468,0.1468 0.0195,1.17076 -1.24561,10.02095 -1.1234,7.85881 -2.36799,16.86371 -2.36799,17.13305 0,0.0736 1.16579,-0.53827 2.51792,-1.32155 5.69174,-3.29717 12.97843,-7.17791 19.0056,-10.12201 5.20879,-2.54435 7.01356,-3.3626 7.41665,-3.3626 0.70305,0 12.13374,5.98086 21.90447,11.46104 8.3305,4.67239 21.14966,12.16939 21.14966,12.36891 0,0.0477 -1.32757,1.03836 -2.95014,2.20146 -8.79616,6.30527 -13.74476,10.01108 -21.49887,16.09962 -7.28862,5.72304 -17.21617,13.97702 -24.15248,20.08089 -0.85186,0.74963 -1.70001,1.43726 -1.88478,1.52807 -0.32215,0.15834 -0.50184,0.12738 -4.37947,-0.75451 -15.66352,-3.56239 -32.32349,-6.90871 -47.8917,-9.61956 -9.35876,-1.6296 -19.31855,-3.22458 -20.79813,-3.33064 l -0.8322,-0.0597 0.32045,0.27745 c 0.50445,0.43675 1.14657,0.91614 5.02037,3.74804 10.8604,7.9394 22.49477,16.79616 32.73925,24.92301 2.04922,1.62563 8.67633,6.97399 9.39197,7.57972 l 0.36599,0.30977 -0.22971,0.29203 c -0.12634,0.16062 -1.20431,1.20894 -2.3955,2.3296 -1.19118,1.12067 -3.17521,3.00664 -4.40894,4.19105 -1.23372,1.18443 -10.36653,9.88543 -20.29512,19.33559 -9.92859,9.45016 -18.64801,17.74956 -19.37648,18.44313 -0.72846,0.69357 -1.38772,1.26103 -1.46501,1.26103 -0.0773,0 -0.32244,-0.15266 -0.54479,-0.33925 z m 1.12531,-82.89195 c 0.27495,-0.18789 2.15825,-1.5253 4.18509,-2.97202 16.64129,-11.87816 30.95002,-21.38029 43.42089,-28.83488 3.53925,-2.11562 4.07815,-2.45021 4.2182,-2.61897 0.0991,-0.11933 -0.30563,-0.40205 -2.15494,-1.5055 -13.07438,-7.80127 -27.5539,-15.28161 -41.74557,-21.5664 -5.61231,-2.48541 -8.01429,-3.47325 -8.44542,-3.47325 -0.83351,0 -11.7939,5.07404 -22.779143,10.54545 -8.162197,4.06533 -12.738945,6.45347 -20.744632,10.82449 -6.081433,3.32039 -9.023011,4.99468 -9.023011,5.13571 0,0.0386 1.141603,0.75496 2.536893,1.59195 11.152947,6.69034 23.021052,14.39488 34.848873,22.6232 3.06717,2.13376 13.56411,9.52892 14.52704,10.23439 0.26437,0.19369 0.52007,0.35335 0.56824,0.35481 0.0482,0.002 0.31253,-0.15108 0.58749,-0.33898 z m -3.71933,-16.70778 c -9.289,-0.65245 -16.776,-3.17973 -22.065719,-7.44844 -2.422283,-1.95473 -4.222585,-4.52249 -5.029293,-7.17323 -0.271116,-0.89085 -0.292569,-1.09844 -0.292569,-2.83064 0,-1.73396 0.02124,-1.93888 0.293319,-2.83064 1.236166,-4.05151 4.497087,-7.45467 9.741262,-10.16618 2.34144,-1.21065 4.19378,-1.93279 6.90786,-2.69305 12.27102,-3.43732 27.06241,-1.74658 36.01597,4.11683 1.50745,0.98719 2.20833,1.53992 3.36212,2.65143 7.33078,7.06219 5.042,16.14793 -5.49107,21.7978 -4.22252,2.26493 -9.26547,3.69812 -15.43065,4.38533 -1.37125,0.15285 -6.73332,0.28055 -8.01123,0.19079 z"
       id="path1818"
       sodipodi:nodetypes="sssssssssssssscssssssscsssssssscsssssscssscsscsssscssssssssssscsssssssscssssssssscsss" />
  </g>
</svg>
